<svg width="1400" height="310" viewBox="0 0 1400 310" fill="none" xmlns="http://www.w3.org/2000/svg" role="img" aria-labelledby="title desc">
  <title id="title">Achievement Layer</title>
  <desc id="desc">GitHub achievement layer for Moparapairayat.</desc>
  <defs>
    <style>
      text { font-family: Inter, Segoe UI, Arial, sans-serif; }
    </style>
    <filter id="ach-glow" x="-30%" y="-30%" width="160%" height="160%">
      <feGaussianBlur stdDeviation="4" result="blur"/>
      <feMerge>
        <feMergeNode in="blur"/>
        <feMergeNode in="SourceGraphic"/>
      </feMerge>
    </filter>
    <filter id="cup-soft" x="-35%" y="-35%" width="170%" height="170%">
      <feDropShadow dx="0" dy="9" stdDeviation="8" flood-color="#000000" flood-opacity="0.28"/>
    </filter>
  </defs>

  <rect width="1400" height="310" fill="#0D1117"/>
  
    <g transform="translate(25,22)">
      <rect width="210" height="266" rx="18" fill="#11101D" stroke="#F8FAFC" stroke-opacity="0.36" stroke-width="2"/>
      <rect x="1" y="1" width="208" height="264" rx="17" fill="none" stroke="#FACC15" stroke-opacity="0.18"/>
      <path d="M18 18 H192" stroke="#FF4D8D" stroke-opacity="0.35" stroke-width="2" stroke-linecap="round"/>
      <text x="105" y="38" fill="#FF4D8D" text-anchor="middle" font-size="25" font-weight="900">Stars</text>

      <g transform="translate(105,92)" filter="url(#cup-soft)">
        <ellipse cx="-55" cy="-2" rx="25" ry="33" fill="none" stroke="#FACC15" stroke-width="9" opacity="0.95"/>
        <ellipse cx="55" cy="-2" rx="25" ry="33" fill="none" stroke="#FACC15" stroke-width="9" opacity="0.95"/>
        <path d="M-54 -42 H54 V4 C54 40 30 64 0 64 C-30 64 -54 40 -54 4 Z" fill="#FACC15"/>
        <path d="M-38 -34 H38 V-4 C38 24 22 44 0 44 C-22 44 -38 24 -38 -4 Z" fill="#FFFFFF" opacity="0.18"/>
        <path d="M-10 -42 H54 V-6 C54 29 30 62 0 64 C24 48 34 24 34 -4 V-42Z" fill="#000000" opacity="0.12"/>
        <rect x="-22" y="58" width="44" height="32" rx="8" fill="#FACC15"/>
        <path d="M-54 102 H54 C48 82 30 74 0 74 C-30 74 -48 82 -54 102Z" fill="#FACC15"/>
        <circle cx="0" cy="-2" r="36" fill="#F0FDF4" stroke="#FFFFFF" stroke-width="3"/>
        <circle cx="0" cy="-2" r="30" fill="#FFFFFF" opacity="0.45"/>
        <text x="0" y="11" fill="#475569" text-anchor="middle" font-size="43" font-weight="900">A</text>
      </g>

      <text x="105" y="218" fill="#D1FAE5" text-anchor="middle" font-size="18" font-weight="900">High Stargazer</text>
      <text x="105" y="242" fill="#D1FAE5" text-anchor="middle" font-size="18" font-weight="900">358pt</text>
      <rect x="28" y="256" width="154" height="7" rx="4" fill="#7A3159" opacity="0.65"/>
      <rect x="28" y="256" width="55" height="7" rx="4" fill="#FF4D8D"/>
      <circle cx="28" cy="259.5" r="4" fill="#FF4D8D"/>
    </g>
    <g transform="translate(250,22)">
      <rect width="210" height="266" rx="18" fill="#11101D" stroke="#F8FAFC" stroke-opacity="0.36" stroke-width="2"/>
      <rect x="1" y="1" width="208" height="264" rx="17" fill="none" stroke="#A7F3D0" stroke-opacity="0.18"/>
      <path d="M18 18 H192" stroke="#FF4D8D" stroke-opacity="0.35" stroke-width="2" stroke-linecap="round"/>
      <text x="105" y="38" fill="#FF4D8D" text-anchor="middle" font-size="25" font-weight="900">Commit</text>

      <g transform="translate(105,92)" filter="url(#cup-soft)">
        <ellipse cx="-55" cy="-2" rx="25" ry="33" fill="none" stroke="#A7F3D0" stroke-width="9" opacity="0.95"/>
        <ellipse cx="55" cy="-2" rx="25" ry="33" fill="none" stroke="#A7F3D0" stroke-width="9" opacity="0.95"/>
        <path d="M-54 -42 H54 V4 C54 40 30 64 0 64 C-30 64 -54 40 -54 4 Z" fill="#A7F3D0"/>
        <path d="M-38 -34 H38 V-4 C38 24 22 44 0 44 C-22 44 -38 24 -38 -4 Z" fill="#FFFFFF" opacity="0.18"/>
        <path d="M-10 -42 H54 V-6 C54 29 30 62 0 64 C24 48 34 24 34 -4 V-42Z" fill="#000000" opacity="0.12"/>
        <rect x="-22" y="58" width="44" height="32" rx="8" fill="#A7F3D0"/>
        <path d="M-54 102 H54 C48 82 30 74 0 74 C-30 74 -48 82 -54 102Z" fill="#A7F3D0"/>
        <circle cx="0" cy="-2" r="36" fill="#F0FDF4" stroke="#FFFFFF" stroke-width="3"/>
        <circle cx="0" cy="-2" r="30" fill="#FFFFFF" opacity="0.45"/>
        <text x="0" y="11" fill="#475569" text-anchor="middle" font-size="43" font-weight="900">B</text>
      </g>

      <text x="105" y="218" fill="#D1FAE5" text-anchor="middle" font-size="18" font-weight="900">Ultra Committer</text>
      <text x="105" y="242" fill="#D1FAE5" text-anchor="middle" font-size="18" font-weight="900">422pt</text>
      <rect x="28" y="256" width="154" height="7" rx="4" fill="#7A3159" opacity="0.65"/>
      <rect x="28" y="256" width="64" height="7" rx="4" fill="#FF4D8D"/>
      <circle cx="28" cy="259.5" r="4" fill="#FF4D8D"/>
    </g>
    <g transform="translate(475,22)">
      <rect width="210" height="266" rx="18" fill="#11101D" stroke="#F8FAFC" stroke-opacity="0.36" stroke-width="2"/>
      <rect x="1" y="1" width="208" height="264" rx="17" fill="none" stroke="#BBF7D0" stroke-opacity="0.18"/>
      <path d="M18 18 H192" stroke="#FF4D8D" stroke-opacity="0.35" stroke-width="2" stroke-linecap="round"/>
      <text x="105" y="38" fill="#FF4D8D" text-anchor="middle" font-size="25" font-weight="900">Followers</text>

      <g transform="translate(105,92)" filter="url(#cup-soft)">
        <ellipse cx="-55" cy="-2" rx="25" ry="33" fill="none" stroke="#BBF7D0" stroke-width="9" opacity="0.95"/>
        <ellipse cx="55" cy="-2" rx="25" ry="33" fill="none" stroke="#BBF7D0" stroke-width="9" opacity="0.95"/>
        <path d="M-54 -42 H54 V4 C54 40 30 64 0 64 C-30 64 -54 40 -54 4 Z" fill="#BBF7D0"/>
        <path d="M-38 -34 H38 V-4 C38 24 22 44 0 44 C-22 44 -38 24 -38 -4 Z" fill="#FFFFFF" opacity="0.18"/>
        <path d="M-10 -42 H54 V-6 C54 29 30 62 0 64 C24 48 34 24 34 -4 V-42Z" fill="#000000" opacity="0.12"/>
        <rect x="-22" y="58" width="44" height="32" rx="8" fill="#BBF7D0"/>
        <path d="M-54 102 H54 C48 82 30 74 0 74 C-30 74 -48 82 -54 102Z" fill="#BBF7D0"/>
        <circle cx="0" cy="-2" r="36" fill="#F0FDF4" stroke="#FFFFFF" stroke-width="3"/>
        <circle cx="0" cy="-2" r="30" fill="#FFFFFF" opacity="0.45"/>
        <text x="0" y="11" fill="#475569" text-anchor="middle" font-size="43" font-weight="900">C</text>
      </g>

      <text x="105" y="218" fill="#D1FAE5" text-anchor="middle" font-size="18" font-weight="900">Famous User</text>
      <text x="105" y="242" fill="#D1FAE5" text-anchor="middle" font-size="18" font-weight="900">24pt</text>
      <rect x="28" y="256" width="154" height="7" rx="4" fill="#7A3159" opacity="0.65"/>
      <rect x="28" y="256" width="14" height="7" rx="4" fill="#FF4D8D"/>
      <circle cx="28" cy="259.5" r="4" fill="#FF4D8D"/>
    </g>
    <g transform="translate(700,22)">
      <rect width="210" height="266" rx="18" fill="#11101D" stroke="#F8FAFC" stroke-opacity="0.36" stroke-width="2"/>
      <rect x="1" y="1" width="208" height="264" rx="17" fill="none" stroke="#BBF7D0" stroke-opacity="0.18"/>
      <path d="M18 18 H192" stroke="#FF4D8D" stroke-opacity="0.35" stroke-width="2" stroke-linecap="round"/>
      <text x="105" y="38" fill="#FF4D8D" text-anchor="middle" font-size="25" font-weight="900">Issues</text>

      <g transform="translate(105,92)" filter="url(#cup-soft)">
        <ellipse cx="-55" cy="-2" rx="25" ry="33" fill="none" stroke="#BBF7D0" stroke-width="9" opacity="0.95"/>
        <ellipse cx="55" cy="-2" rx="25" ry="33" fill="none" stroke="#BBF7D0" stroke-width="9" opacity="0.95"/>
        <path d="M-54 -42 H54 V4 C54 40 30 64 0 64 C-30 64 -54 40 -54 4 Z" fill="#BBF7D0"/>
        <path d="M-38 -34 H38 V-4 C38 24 22 44 0 44 C-22 44 -38 24 -38 -4 Z" fill="#FFFFFF" opacity="0.18"/>
        <path d="M-10 -42 H54 V-6 C54 29 30 62 0 64 C24 48 34 24 34 -4 V-42Z" fill="#000000" opacity="0.12"/>
        <rect x="-22" y="58" width="44" height="32" rx="8" fill="#BBF7D0"/>
        <path d="M-54 102 H54 C48 82 30 74 0 74 C-30 74 -48 82 -54 102Z" fill="#BBF7D0"/>
        <circle cx="0" cy="-2" r="36" fill="#F0FDF4" stroke="#FFFFFF" stroke-width="3"/>
        <circle cx="0" cy="-2" r="30" fill="#FFFFFF" opacity="0.45"/>
        <text x="0" y="11" fill="#475569" text-anchor="middle" font-size="43" font-weight="900">C</text>
      </g>

      <text x="105" y="218" fill="#D1FAE5" text-anchor="middle" font-size="18" font-weight="900">High Issuer</text>
      <text x="105" y="242" fill="#D1FAE5" text-anchor="middle" font-size="18" font-weight="900">1pt</text>
      <rect x="28" y="256" width="154" height="7" rx="4" fill="#7A3159" opacity="0.65"/>
      <rect x="28" y="256" width="14" height="7" rx="4" fill="#FF4D8D"/>
      <circle cx="28" cy="259.5" r="4" fill="#FF4D8D"/>
    </g>
    <g transform="translate(925,22)">
      <rect width="210" height="266" rx="18" fill="#11101D" stroke="#F8FAFC" stroke-opacity="0.36" stroke-width="2"/>
      <rect x="1" y="1" width="208" height="264" rx="17" fill="none" stroke="#F97316" stroke-opacity="0.18"/>
      <path d="M18 18 H192" stroke="#FF4D8D" stroke-opacity="0.35" stroke-width="2" stroke-linecap="round"/>
      <text x="105" y="38" fill="#FF4D8D" text-anchor="middle" font-size="25" font-weight="900">PullRequest</text>

      <g transform="translate(105,92)" filter="url(#cup-soft)">
        <ellipse cx="-55" cy="-2" rx="25" ry="33" fill="none" stroke="#F97316" stroke-width="9" opacity="0.95"/>
        <ellipse cx="55" cy="-2" rx="25" ry="33" fill="none" stroke="#F97316" stroke-width="9" opacity="0.95"/>
        <path d="M-54 -42 H54 V4 C54 40 30 64 0 64 C-30 64 -54 40 -54 4 Z" fill="#F97316"/>
        <path d="M-38 -34 H38 V-4 C38 24 22 44 0 44 C-22 44 -38 24 -38 -4 Z" fill="#FFFFFF" opacity="0.18"/>
        <path d="M-10 -42 H54 V-6 C54 29 30 62 0 64 C24 48 34 24 34 -4 V-42Z" fill="#000000" opacity="0.12"/>
        <rect x="-22" y="58" width="44" height="32" rx="8" fill="#F97316"/>
        <path d="M-54 102 H54 C48 82 30 74 0 74 C-30 74 -48 82 -54 102Z" fill="#F97316"/>
        <circle cx="0" cy="-2" r="36" fill="#F0FDF4" stroke="#FFFFFF" stroke-width="3"/>
        <circle cx="0" cy="-2" r="30" fill="#FFFFFF" opacity="0.45"/>
        <text x="0" y="11" fill="#475569" text-anchor="middle" font-size="43" font-weight="900">C</text>
      </g>

      <text x="105" y="218" fill="#D1FAE5" text-anchor="middle" font-size="18" font-weight="900">Middle PR User</text>
      <text x="105" y="242" fill="#D1FAE5" text-anchor="middle" font-size="18" font-weight="900">12pt</text>
      <rect x="28" y="256" width="154" height="7" rx="4" fill="#7A3159" opacity="0.65"/>
      <rect x="28" y="256" width="14" height="7" rx="4" fill="#FF4D8D"/>
      <circle cx="28" cy="259.5" r="4" fill="#FF4D8D"/>
    </g>
    <g transform="translate(1150,22)">
      <rect width="210" height="266" rx="18" fill="#11101D" stroke="#F8FAFC" stroke-opacity="0.36" stroke-width="2"/>
      <rect x="1" y="1" width="208" height="264" rx="17" fill="none" stroke="#3B82F6" stroke-opacity="0.18"/>
      <path d="M18 18 H192" stroke="#FF4D8D" stroke-opacity="0.35" stroke-width="2" stroke-linecap="round"/>
      <text x="105" y="38" fill="#FF4D8D" text-anchor="middle" font-size="25" font-weight="900">Repositories</text>

      <g transform="translate(105,92)" filter="url(#cup-soft)">
        <ellipse cx="-55" cy="-2" rx="25" ry="33" fill="none" stroke="#3B82F6" stroke-width="9" opacity="0.95"/>
        <ellipse cx="55" cy="-2" rx="25" ry="33" fill="none" stroke="#3B82F6" stroke-width="9" opacity="0.95"/>
        <path d="M-54 -42 H54 V4 C54 40 30 64 0 64 C-30 64 -54 40 -54 4 Z" fill="#3B82F6"/>
        <path d="M-38 -34 H38 V-4 C38 24 22 44 0 44 C-22 44 -38 24 -38 -4 Z" fill="#FFFFFF" opacity="0.18"/>
        <path d="M-10 -42 H54 V-6 C54 29 30 62 0 64 C24 48 34 24 34 -4 V-42Z" fill="#000000" opacity="0.12"/>
        <rect x="-22" y="58" width="44" height="32" rx="8" fill="#3B82F6"/>
        <path d="M-54 102 H54 C48 82 30 74 0 74 C-30 74 -48 82 -54 102Z" fill="#3B82F6"/>
        <circle cx="0" cy="-2" r="36" fill="#F0FDF4" stroke="#FFFFFF" stroke-width="3"/>
        <circle cx="0" cy="-2" r="30" fill="#FFFFFF" opacity="0.45"/>
        <text x="0" y="11" fill="#475569" text-anchor="middle" font-size="43" font-weight="900">B</text>
      </g>

      <text x="105" y="218" fill="#D1FAE5" text-anchor="middle" font-size="18" font-weight="900">Repository Builder</text>
      <text x="105" y="242" fill="#D1FAE5" text-anchor="middle" font-size="18" font-weight="900">32pt</text>
      <rect x="28" y="256" width="154" height="7" rx="4" fill="#7A3159" opacity="0.65"/>
      <rect x="28" y="256" width="49" height="7" rx="4" fill="#FF4D8D"/>
      <circle cx="28" cy="259.5" r="4" fill="#FF4D8D"/>
    </g>

  <g filter="url(#ach-glow)">
    <circle cx="103" cy="155" r="4" fill="#FBBF24"/>
    <circle cx="553" cy="155" r="4" fill="#A7F3D0"/>
    <circle cx="1003" cy="155" r="4" fill="#F97316"/>
  </g>
</svg>
